<?xml version="1.0" encoding="utf-8"?>
<!-- Generator: Adobe Illustrator 19.1.0, SVG Export Plug-In . SVG Version: 6.00 Build 0)  -->
<svg version="1.1" id="Layer_1" xmlns="http://www.w3.org/2000/svg" xmlns:xlink="http://www.w3.org/1999/xlink" x="0px" y="0px"
	 viewBox="-105 67.8 32 32" style="enable-background:new -105 67.8 32 32;" xml:space="preserve">
<style type="text/css">
	.st0{fill:#FFFFFF;}
</style>
<path class="st0" d="M-82.2,69.6c-4.7,0-8.4,3.8-8.4,8.4c0,4.7,3.8,8.4,8.4,8.4s8.4-3.8,8.4-8.4C-73.8,73.4-77.6,69.6-82.2,69.6z
	 M-85.3,73.9c0.7,0,1.2,0.5,1.2,1.2s-0.5,1.2-1.2,1.2c-0.7,0-1.2-0.5-1.2-1.2S-85.9,73.9-85.3,73.9z M-83.2,83.7
	c-1.8,0-3.2-1.1-3.2-2.4s1.4-2.4,3.2-2.4c1.8,0,3.2,1.1,3.2,2.4S-81.5,83.7-83.2,83.7z M-81.2,76.7c-0.7,0-1.2-0.5-1.2-1.2
	s0.5-1.2,1.2-1.2s1.2,0.5,1.2,1.2S-80.5,76.7-81.2,76.7z"/>
<path class="st0" d="M-93.8,80.4c-2.3-0.5-4.5,1-5,3.3c-0.3,1.5,0.2,2.9,1.2,3.9l-6,9.3c-0.1,0.2-0.1,0.5,0.1,0.7
	c0.2,0.1,0.5,0.1,0.7-0.1l6-9.2c0.4,0.2,0.8,0.4,1.2,0.5c2.3,0.5,4.5-1,5-3.3C-90.1,83.1-91.5,80.8-93.8,80.4z"/>
</svg>
